# AST/ASF file generated using VICON BodyLanguage
# -----------------------------------------------
:version 1.10
:name VICON
:units
  mass 1.0
  length 0.45
  angle deg
:documentation
   .ast/.asf automatically generated from VICON data using
   VICON BodyBuilder and BodyLanguage model FoxedUp or BRILLIANT.MOD
:root
   order TX TY TZ RX RY RZ
   axis XYZ
   position 0 0 0  
   orientation 0 0 0 
:bonedata
  begin
     id 1 
     name lhipjoint
     direction 0.604623 -0.733026 0.311616 
     length 2.56391 
     axis 0 0 0  XYZ
  end
  begin
     id 2 
     name lfemur
     direction 0.34202 -0.939693 0  
     length 7.75596  
     axis 0 0 20  XYZ
    dof rx ry rz
    limits (-160.0 20.0)
           (-70.0 70.0)
           (-60.0 70.0)
  end
  begin
     id 3 
     name ltibia
     direction 0.34202 -0.939693 0   
     length 7.63697   
     axis 0 0 20   XYZ
    dof rx
    limits (-10.0 170.0)
  end
  begin
     id 4 
     name lfoot
     direction 0.048038 -0.131983 0.990087   
     length 1.94388   
     axis -90 7.62852e-016 20   XYZ
    dof rx rz
    limits (-45.0 90.0)
           (-70.0 20.0)
  end
  begin
     id 5 
     name ltoes
     direction 1.53565e-011 -4.21929e-011 1   
     length 0.984801   
     axis -90 7.62852e-016 20   XYZ
    dof rx
    limits (-90.0 20.0)
  end
  begin
     id 6 
     name rhipjoint
     direction -0.609162 -0.729836 0.31026   
     length 2.57511  
     axis 0 0 0  XYZ 
  end
  begin
     id 7 
     name rfemur
     direction -0.34202 -0.939693 0   
     length 7.60772   
     axis 0 0 -20   XYZ
    dof rx ry rz
    limits (-160.0 20.0)
           (-70.0 70.0)
           (-70.0 60.0)
  end
  begin
     id 8 
     name rtibia
     direction -0.34202 -0.939693 0   
     length 7.68497   
     axis 0 0 -20   XYZ
    dof rx
    limits (-10.0 170.0)
 end
 begin
     id 9 
     name rfoot
     direction -0.0969806 -0.266452 0.958957   
     length 2.01398  
     axis -90 -7.62852e-016 -20   XYZ
    dof rx rz
    limits (-45.0 90.0)
           (-20.0 70.0)
  end
  begin
     id 10 
     name rtoes
     direction -1.53552e-011 -4.21869e-011 1   
     length 1.00896   
     axis -90 -7.62852e-016 -20   XYZ
    dof rx
    limits (-90.0 20.0)
  end
  begin
     id 11 
     name lowerback
     direction 0.0305179 0.993923 -0.10576   
     length 2.09077   
     axis 0 0 0   XYZ
    dof rx ry rz
    limits (-20.0 45.0)
           (-30.0 30.0)
           (-30.0 30.0)
  end
  begin
     id 12 
     name upperback
     direction -0.0137909 0.999867 0.00873764   
     length 2.08918   
     axis 0 0 0   XYZ
    dof rx ry rz
    limits (-20.0 45.0)
           (-30.0 30.0)
           (-30.0 30.0)
  end
  begin
     id 13 
     name thorax
     direction -0.0278536 0.997917 0.0581839   
     length 2.11939   
     axis 0 0 0   XYZ
    dof rx ry rz
    limits (-20.0 45.0)
           (-30.0 30.0)
           (-30.0 30.0)
  end
  begin
     id 14 
     name lowerneck
     direction 0.0138689 0.999837 -0.0116016   
     length 1.74353   
     axis 0 0 0   XYZ
    dof rx ry rz
    limits (-20.0 45.0)
           (-30.0 30.0)
           (-30.0 30.0)
  end
  begin
     id 15 
     name upperneck
     direction -0.00992078 0.999667 0.0238149   
     length 1.71734   
     axis 0 0 0   XYZ
    dof rx ry rz
    limits (-20.0 45.0)
           (-30.0 30.0)
           (-30.0 30.0)
  end
  begin
     id 16
     name head
     direction -0.00530555 0.999941 0.00944937  
     length 1.78249  
     axis 0 0 0   XYZ
    dof rx ry rz
    limits (-20.0 45.0)
           (-30.0 30.0)
           (-30.0 30.0)
  end
  begin
     id 17 
     name lclavicle
     direction 0.929165 0.366864 0.0454227  
     length 3.65686  
     axis 0 0 0   XYZ
    dof ry rz
    limits (-20.0 10.0)
           (0.0 20.0)
  end
  begin
     id 18 
     name lhumerus
     direction 1 -4.4897e-011 3.05413e-018   
     length 5.15218   
     axis -180 -30 -90   XYZ
    dof rx ry rz
    limits (-60.0 90.0)
           (-90.0 90.0)
           (-90.0 90.0)
  end
  begin
     id 19
     name lradius
     direction 1 -4.48963e-011 5.40022e-027   
     length 3.49459   
     axis -180 -30 -90   XYZ
    dof rx
    limits (-10.0 170.0)
  end
  begin
     id 20
     name lwrist
     direction 1 -4.48966e-011 9.79369e-027   
     length 1.7473   
     axis -4.67603e-015 90 90   XYZ
    dof ry
    limits (-180.0 0.0)
 end
  begin
     id 21 
     name lhand
     direction 1 -4.48996e-011 1.9593e-026   
     length 0.512466   
     axis -1.24987e-014 90 90   XYZ
    dof rx rz
    limits (-90.0 90.0)
           (-45.0 45.0)
  end
  begin
     id 22 
     name lfingers
     direction 1 -4.48931e-011 3.91616e-026   
     length 0.413163   
     axis -2.49979e-014 90 90   XYZ
    dof rx
    limits (0.0 90.0)
  end
  begin
     id 23
     name lthumb
     direction 0.707107 -6.34959e-011 0.707107   
     length 0.593222   
     axis -90 45 5.69224e-014   XYZ
    dof rx rz
    limits (-45.0 45.0)
           (-45.0 45.0)
  end
  begin
     id 24 
     name rclavicle
     direction -0.951469 0.307727 0.00346571   
     length 3.42864  
     axis 0 0 0   XYZ 
    dof ry rz
    limits (-10.0 20.0)
           (-20.0 0.0)
  end
  begin
     id 25 
     name rhumerus
     direction -1 -4.48967e-011 2.58643e-027  
     length 5.44344   
     axis -180 30 90   XYZ
    dof rx ry rz
    limits (-90.0 60.0)
           (-90.0 90.0)
           (-90.0 90.0)
  end
  begin
     id 26 
     name rradius
     direction -1 -4.48973e-011 4.26485e-028   
     length 3.58403   
     axis -180 30 90   XYZ
    dof rx
    limits (-10.0 170.0)
  end
  begin
     id 27 
     name rwrist
     direction -1 -4.48962e-011 9.79331e-027   
     length 1.79202   
     axis -4.67603e-015 -90 -90   XYZ
    dof ry
    limits (-180.0 0.0)
  end
  begin
     id 28
     name rhand
     direction -1 -4.48975e-011 1.95891e-026   
     length 0.34249   
     axis -1.24987e-014 -90 -90   XYZ
    dof rx rz
    limits (-90.0 90.0)
           (-45.0 45.0)
  end
  begin
     id 29
     name rfingers
     direction -1 -4.48893e-011 3.9147e-026   
     length 0.276124   
     axis -2.49979e-014 -90 -90   XYZ
    dof rx
    limits (0.0 90.0)
  end
  begin
     id 30
     name rthumb
     direction -0.707107 -6.34898e-011 0.707107   
     length 0.39646   
     axis -90 -45 -5.69224e-014   XYZ
    dof rx rz
    limits (-45.0 45.0)
           (-45.0 45.0)
  end
:hierarchy
  begin
    root lhipjoint rhipjoint lowerback
    lhipjoint lfemur
    lfemur ltibia
    ltibia lfoot
    lfoot ltoes
    rhipjoint rfemur
    rfemur rtibia
    rtibia rfoot
    rfoot rtoes
    lowerback upperback
    upperback thorax
    thorax lowerneck lclavicle rclavicle
    lowerneck upperneck
    upperneck head
    lclavicle lhumerus
    lhumerus lradius
    lradius lwrist
    lwrist lhand lthumb
    lhand lfingers
    rclavicle rhumerus
    rhumerus rradius
    rradius rwrist
    rwrist rhand rthumb
    rhand rfingers
  end

#!OML:ASF H:\charlestonDancing\Project 1\Capture day 1\Session 1\femaleDancer.ASF
:FULLY-SPECIFIED
:DEGREES
310
root -13.6363 17.6771 -2.87828 -187.436 159.919 -548.466
lowerback 11.7155 3.25006 10.3631
upperback 2.60738 5.62754 1.13706
thorax -2.9147 2.75209 -5.35465
lowerneck 12.1867 13.1128 17.2872
upperneck -1.27703 19.5077 -12.4765
head 0.603631 10.0816 -6.51037
rclavicle -3.66509e-015 4.87022e-015
rhumerus -36.7277 14.2664 -86.4272
rradius 30.0213
rwrist 10.5083
rhand -18.3765 -28.2239
rfingers 7.12502
rthumb 7.90697 -58.056
lclavicle -3.66509e-015 4.87022e-015
lhumerus -27.1186 15.073 55.0882
lradius 79.5277
lwrist 28.2213
lhand -15.711 33.5015
lfingers 7.12502
lthumb 10.4789 63.2203
rfemur -0.675329 -7.29364 32.5688
rtibia 25.5208
rfoot -19.137 -0.927521
rtoes -9.67466
lfemur -28.4742 3.28232 -2.15841
ltibia 61.7916
lfoot 10.4563 -2.49801
ltoes -43.4334
311
root -13.6456 17.6777 -2.88686 -187.373 159.746 -548.536
lowerback 11.7451 3.24593 10.4261
upperback 2.57386 5.63918 1.21482
thorax -2.96677 2.75313 -5.313
lowerneck 12.2553 13.115 17.5279
upperneck -1.31121 19.5534 -12.8849
head 0.654637 10.1189 -6.66231
rclavicle -9.44724e-014 1.49089e-015
rhumerus -36.7656 14.4577 -86.4937
rradius 30.2355
rwrist 10.2645
rhand -18.4565 -29.5479
rfingers 7.12502
rthumb 7.82972 -59.3829
lclavicle -9.44724e-014 1.49089e-015
lhumerus -26.9727 14.7367 55.2446
lradius 79.3848
lwrist 28.2315
lhand -15.6016 33.9492
lfingers 7.12502
lthumb 10.5845 63.6627
rfemur -0.845725 -7.26484 32.6938
rtibia 25.5278
rfoot -19.0853 -1.22411
rtoes -10.142
lfemur -28.6697 3.20316 -2.11205
ltibia 61.7247
lfoot 10.5564 -2.27891
ltoes -42.4386
312
root -13.6526 17.6763 -2.89339 -187.358 159.579 -548.655
lowerback 11.746 3.18987 10.57
upperback 2.57192 5.58658 1.29708
thorax -2.97233 2.72581 -5.30007
lowerneck 12.3408 13.2113 17.5288
upperneck -1.37215 19.6926 -13.0825
head 0.665181 10.1968 -6.71975
rclavicle -9.22982e-014 -1.49089e-015
rhumerus -36.713 14.7413 -86.6088
rradius 30.4503
rwrist 10.1105
rhand -18.8628 -31.2174
rfingers 7.12502
rthumb 7.43759 -61.0666
lclavicle -9.22982e-014 -1.49089e-015
lhumerus -26.9383 14.6882 55.3716
lradius 79.3691
lwrist 28.1915
lhand -15.4875 34.1738
lfingers 7.12502
lthumb 10.6945 63.8816
rfemur -0.959555 -7.34947 32.8351
rtibia 25.5256
rfoot -19.0518 -1.21255
rtoes -10.203
lfemur -28.826 3.1748 -2.01804
ltibia 61.6868
lfoot 10.5993 -2.30897
ltoes -42.3853
313
root -13.6592 17.6769 -2.89951 -187.254 159.366 -548.578
lowerback 11.7298 3.15169 10.5235
upperback 2.55501 5.53164 1.33927
thorax -2.99945 2.69667 -5.22399
lowerneck 12.3886 13.298 17.5344
upperneck -1.34657 19.8195 -13.2798
head 0.706019 10.2692 -6.77124
rclavicle -5.32184e-014 -1.13804e-014
rhumerus -36.6362 14.8649 -86.6132
rradius 30.6281
rwrist 10.1325
rhand -18.9519 -32.0204
rfingers 7.12502
rthumb 7.35162 -61.8726
lclavicle -5.32184e-014 -1.13804e-014
lhumerus -26.9691 14.6911 55.5358
lradius 79.4428
lwrist 28.0825
lhand -15.3185 34.0454
lfingers 7.12502
lthumb 10.8576 63.7447
rfemur -1.08474 -7.43861 32.7703
rtibia 25.5071
rfoot -19.0167 -1.15937
rtoes -9.8539
lfemur -29.0006 3.12121 -2.14582
ltibia 61.6471
lfoot 10.6175 -2.37554
ltoes -42.6101
314
root -13.6628 17.6806 -2.90301 -187.281 159.293 -548.489
lowerback 11.8433 3.18362 10.5274
upperback 2.58022 5.5879 1.35776
thorax -3.02755 2.72382 -5.22079
lowerneck 12.2879 13.2964 17.8967
upperneck -1.10383 19.8712 -13.7253
head 0.883219 10.3103 -6.92128
rclavicle -1.20476e-013 -2.94201e-014
rhumerus -36.5691 14.759 -86.5736
rradius 30.7897
rwrist 10.2185
rhand -18.8321 -31.8635
rfingers 7.12502
rthumb 7.46721 -61.7117
lclavicle -1.20476e-013 -2.94201e-014
lhumerus -26.8827 14.5528 55.7356
lradius 79.4587
lwrist 27.9595
lhand -14.9805 33.1902
lfingers 7.12502
lthumb 11.1836 62.8721
rfemur -1.04782 -7.39554 32.6889
rtibia 25.5157
rfoot -18.998 -1.25912
rtoes -9.74416
lfemur -28.9398 3.06305 -2.26103
ltibia 61.5943
lfoot 10.5681 -2.30359
ltoes -42.5361
315
root -13.6652 17.683 -2.90511 -187.4 159.335 -548.468
lowerback 12.0303 3.24073 10.6052
upperback 2.60781 5.69622 1.38678
thorax -3.07872 2.77498 -5.25893
lowerneck 12.2202 13.2801 18.2573
upperneck -0.845663 19.9108 -14.1019
head 1.05097 10.3439 -7.05503
rclavicle 2.09376e-014 -3.43897e-014
rhumerus -36.563 14.6552 -86.5763
rradius 30.9685
rwrist 10.3123
rhand -18.6509 -31.2803
rfingers 7.12502
rthumb 7.64211 -61.1223
lclavicle 2.09376e-014 -3.43897e-014
lhumerus -26.7682 14.2944 55.8796
lradius 79.4016
lwrist 27.9764
lhand -14.8332 32.5271
lfingers 7.12502
lthumb 11.3256 62.2013
rfemur -0.933611 -7.33085 32.6745
rtibia 25.5413
rfoot -18.9973 -1.37638
rtoes -10.0425
lfemur -28.7463 3.09798 -2.29099
ltibia 61.5429
lfoot 10.4514 -2.31749
ltoes -43.0181
316
root -13.6708 17.6817 -2.90965 -187.342 159.258 -548.466
lowerback 12.0446 3.27873 10.6548
upperback 2.56436 5.75885 1.41661
thorax -3.12084 2.80145 -5.265
lowerneck 12.3186 13.3311 18.2006
upperneck -0.81593 19.9891 -14.064
head 1.04771 10.3857 -7.03789
rclavicle -7.4156e-015 7.95139e-016
rhumerus -36.5729 14.6464 -86.6118
rradius 31.1216
rwrist 10.297
rhand -18.5249 -30.8183
rfingers 7.12502
rthumb 7.76377 -60.6557
lclavicle -7.4156e-015 7.95139e-016
lhumerus -26.7035 14.0272 55.9931
lradius 79.3426
lwrist 27.9492
lhand -14.8345 32.3111
lfingers 7.12502
lthumb 11.3244 61.9853
rfemur -1.02554 -7.33868 32.6979
rtibia 25.5304
rfoot -18.9843 -1.49445
rtoes -10.2633
lfemur -28.8273 3.12302 -2.31844
ltibia 61.5074
lfoot 10.4219 -2.37523
ltoes -43.2974
317
root -13.6761 17.6799 -2.91456 -187.216 159.067 -548.492
lowerback 11.9316 3.26717 10.74
upperback 2.52339 5.74382 1.44526
thorax -3.09918 2.79316 -5.27239
lowerneck 12.4445 13.4229 17.993
upperneck -0.883084 20.0967 -13.9208
head 0.990258 10.4384 -6.97599
rclavicle -1.69733e-014 -3.32991e-014
rhumerus -36.5032 14.798 -86.6876
rradius 31.2212
rwrist 10.1836
rhand -18.4326 -30.737
rfingers 7.12502
rthumb 7.85285 -60.5712
lclavicle -1.69733e-014 -3.32991e-014
lhumerus -26.6191 13.8681 56.097
lradius 79.2605
lwrist 27.8337
lhand -14.8136 32.2043
lfingers 7.12502
lthumb 11.3445 61.8774
rfemur -1.19998 -7.40655 32.7477
rtibia 25.5028
rfoot -18.9782 -1.648
rtoes -10.3476
lfemur -29.055 3.05237 -2.33244
ltibia 61.4839
lfoot 10.4474 -2.40145
ltoes -43.2508
318
root -13.6786 17.6795 -2.91839 -187.226 158.925 -548.611
lowerback 11.8975 3.20575 10.9598
upperback 2.52975 5.68717 1.49302
thorax -3.06595 2.76595 -5.3331
lowerneck 12.4671 13.4893 18.0311
upperneck -0.801243 20.2025 -14.0675
head 1.04731 10.4982 -7.01307
rclavicle 5.26779e-015 -9.93923e-017
rhumerus -36.4261 15.1443 -86.8164
rradius 31.3496
rwrist 10.0494
rhand -18.3183 -30.707
rfingers 7.12502
rthumb 7.96313 -60.537
lclavicle 5.26779e-015 -9.93923e-017
lhumerus -26.593 13.838 56.1365
lradius 79.2191
lwrist 27.816
lhand -14.7355 32.2016
lfingers 7.12502
lthumb 11.4199 61.8706
rfemur -1.24637 -7.47969 32.8693
rtibia 25.4718
rfoot -18.9513 -1.71573
rtoes -10.1609
lfemur -29.1499 2.98171 -2.23579
ltibia 61.4504
lfoot 10.4166 -2.41507
ltoes -43.3123
319
root -13.6806 17.6807 -2.92096 -187.306 158.845 -548.812
lowerback 11.91 3.17046 11.2867
upperback 2.54594 5.68335 1.53553
thorax -3.02783 2.76495 -5.46687
lowerneck 12.4084 13.5454 18.0966
upperneck -0.678903 20.288 -14.1724
head 1.12399 10.5443 -7.03385
rclavicle 1.50486e-014 -1.90585e-014
rhumerus -36.3381 15.361 -86.9639
rradius 31.4432
rwrist 9.98312
rhand -18.4038 -30.9851
rfingers 7.12502
rthumb 7.88064 -60.8182
lclavicle 1.50486e-014 -1.90585e-014
lhumerus -26.6211 13.8904 56.2118
lradius 79.3161
lwrist 27.7947
lhand -14.5893 32.3797
lfingers 7.12502
lthumb 11.5609 62.0408
rfemur -1.22471 -7.48742 33.0787
rtibia 25.4073
rfoot -18.9031 -1.68236
rtoes -9.54241
lfemur -29.1644 2.93584 -2.03082
ltibia 61.3858
lfoot 10.385 -2.37805
ltoes -43.0611
320
root -13.6811 17.6844 -2.9198 -187.34 158.774 -548.801
lowerback 11.9109 3.18045 11.4089
upperback 2.58371 5.70787 1.51386
thorax -2.96898 2.78158 -5.5571
lowerneck 12.4384 13.6408 17.8663
upperneck -0.738286 20.3807 -13.955
head 1.07051 10.584 -6.94023
rclavicle -1.36773e-013 -1.59773e-014
rhumerus -36.2071 15.4908 -87.1671
rradius 31.4692
rwrist 9.92287
rhand -18.665 -31.7747
rfingers 7.12502
rthumb 7.62853 -61.6171
lclavicle -1.36773e-013 -1.59773e-014
lhumerus -26.6107 13.8946 56.3099
lradius 79.4162
lwrist 27.7354
lhand -14.6318 32.5991
lfingers 7.12502
lthumb 11.5198 62.2625
rfemur -1.13118 -7.41708 33.0787
rtibia 25.3049
rfoot -18.8522 -1.6963
rtoes -9.29625
lfemur -29.0815 2.85874 -2.0553
ltibia 61.293
lfoot 10.3426 -2.28847
ltoes -42.7107
321
root -13.6789 17.6892 -2.9165 -187.409 158.699 -548.481
lowerback 12.0546 3.20935 11.2186
upperback 2.65766 5.73379 1.4479
thorax -2.97684 2.79818 -5.53364
lowerneck 12.5373 13.7407 17.6051
upperneck -0.839937 20.4831 -13.7297
head 0.991135 10.6298 -6.84858
rclavicle -2.44567e-014 -4.02539e-015
rhumerus -36.1148 15.6339 -87.3311
rradius 31.4803
rwrist 9.96448
rhand -18.8103 -32.1716
rfingers 7.12502
rthumb 7.48825 -62.0191
lclavicle -2.44567e-014 -4.02539e-015
lhumerus -26.5224 13.5809 56.3594
lradius 79.3688
lwrist 27.8041
lhand -15.0101 32.5936
lfingers 7.12502
lthumb 11.155 62.2771
rfemur -0.861273 -7.36772 32.7341
rtibia 25.2057
rfoot -18.8111 -1.81211
rtoes -9.71205
lfemur -28.7982 2.76531 -2.42078
ltibia 61.1958
lfoot 10.2644 -2.18179
ltoes -42.4973
